<?xml version="1.0" encoding="UTF-8"?><svg id="Layer_2" xmlns="http://www.w3.org/2000/svg" viewBox="0 0 1810.95 539.85"><defs><style>.cls-1{fill:#fff;}</style></defs><g id="Layer_1-2"><path class="cls-1" d="m205.01,154.46c131.84,0,195.59,73.89,197.76,164.44h-122.43c-2.9-42.74-25.35-67.37-73.17-67.37-52.16,0-82.58,23.18-82.58,95.62,0,72.44,28.25,95.62,80.41,95.62,51.43,0,73.17-28.25,76.79-68.09h122.43c-2.17,86.21-62.3,165.17-197.04,165.17C57.23,539.85,0,444.95,0,347.15c0-97.8,55.06-192.69,205.01-192.69Z"/><path class="cls-1" d="m583.68,166.05h120.98s0,72.44,0,72.44c14.49-49.98,44.19-78.24,102.14-78.24h30.43s0,120.98,0,120.98h-44.19c-59.4,0-84.76,28.98-84.76,102.14v144.88s-124.6,0-124.6,0V166.05Z"/><path class="cls-1" d="m1051.21,154.46c131.84,0,195.59,73.89,197.77,164.44h-122.43c-2.9-42.74-25.36-67.37-73.17-67.37-52.16,0-82.58,23.18-82.58,95.62,0,72.44,28.25,95.62,80.41,95.62,51.43,0,73.17-28.25,76.79-68.09h122.43c-2.17,86.21-62.3,165.17-197.04,165.17-149.95,0-207.18-94.9-207.18-192.69,0-97.8,55.06-192.69,205.01-192.69Z"/><path class="cls-1" d="m1271.7,21.16h124.6s0,507.09,0,507.09h-124.6s0-507.09,0-507.09Z"/><path class="cls-1" d="m1416.14,346.43c0-105.04,60.85-191.97,199.94-191.97,147.78,0,194.87,93.45,194.87,194.14,0,11.59-.72,22.46-2.17,30.43h-271.66c7.24,57.95,36.22,77.51,81.86,77.51,36.95,0,59.4-15.94,69.54-37.67h120.98c-11.59,62.3-61.58,120.98-193.42,120.98-147.06,0-199.94-94.17-199.94-193.42Zm276.73-39.84c-4.35-45.64-26.8-70.27-74.61-70.27-45.64,0-71.72,18.11-79.69,70.27h154.3Z"/><path class="cls-1" d="m427.03,166.05h124.6s0,362.21,0,362.21h-124.6s0-362.21,0-362.21Z"/><circle class="cls-1" cx="489.69" cy="71.41" r="71.41"/></g></svg>